<svg width="140" height="40" viewBox="0 0 140 40" fill="none" xmlns="http://www.w3.org/2000/svg">
<rect width="140" height="40" rx="5" fill="#EBE7E1"/>
<path d="M42.828 9.087H44.277C45.177 9.087 45.861 9.342 46.329 9.852C46.803 10.362 47.04 11.085 47.04 12.021C47.04 12.957 46.803 13.689 46.329 14.217C45.861 14.739 45.186 15 44.304 15H42.828V9.087ZM44.223 14.451C44.931 14.451 45.462 14.241 45.816 13.821C46.176 13.395 46.356 12.795 46.356 12.021C46.356 11.259 46.176 10.671 45.816 10.257C45.462 9.843 44.931 9.636 44.223 9.636H43.494V14.451H44.223ZM49.9495 15.108C49.5895 15.108 49.2565 15.018 48.9505 14.838C48.6445 14.652 48.3985 14.388 48.2125 14.046C48.0325 13.698 47.9425 13.29 47.9425 12.822C47.9425 12.354 48.0325 11.946 48.2125 11.598C48.3985 11.25 48.6445 10.986 48.9505 10.806C49.2565 10.62 49.5895 10.527 49.9495 10.527C50.3095 10.527 50.6425 10.62 50.9485 10.806C51.2545 10.986 51.4975 11.25 51.6775 11.598C51.8635 11.946 51.9565 12.354 51.9565 12.822C51.9565 13.29 51.8635 13.698 51.6775 14.046C51.4975 14.388 51.2545 14.652 50.9485 14.838C50.6425 15.018 50.3095 15.108 49.9495 15.108ZM49.9495 14.559C50.2075 14.559 50.4355 14.487 50.6335 14.343C50.8375 14.199 50.9965 13.995 51.1105 13.731C51.2245 13.467 51.2815 13.164 51.2815 12.822C51.2815 12.48 51.2245 12.177 51.1105 11.913C50.9965 11.649 50.8375 11.445 50.6335 11.301C50.4355 11.151 50.2075 11.076 49.9495 11.076C49.6915 11.076 49.4605 11.151 49.2565 11.301C49.0585 11.445 48.9025 11.649 48.7885 11.913C48.6805 12.177 48.6265 12.48 48.6265 12.822C48.6265 13.344 48.7495 13.764 48.9955 14.082C49.2415 14.4 49.5595 14.559 49.9495 14.559ZM52.5695 10.635H53.2445L53.9285 13.236L54.0095 13.623C54.0935 13.983 54.1535 14.256 54.1895 14.442H54.2255C54.3395 13.974 54.4415 13.572 54.5315 13.236L55.2335 10.635H55.8905L56.6015 13.236L56.9075 14.442H56.9435L57.2315 13.236L57.8975 10.635H58.5275L57.3395 15H56.5295L55.8635 12.561L55.6925 11.85C55.6805 11.802 55.6385 11.622 55.5665 11.31H55.5305C55.3985 11.904 55.2935 12.327 55.2155 12.579L54.5675 15H53.8025L52.5695 10.635ZM59.5082 10.635H60.0482L60.1022 11.283H60.1292C60.3692 11.043 60.6032 10.857 60.8312 10.725C61.0652 10.593 61.3202 10.527 61.5962 10.527C62.0522 10.527 62.3882 10.671 62.6042 10.959C62.8202 11.241 62.9282 11.664 62.9282 12.228V15H62.2712V12.309C62.2712 11.889 62.2022 11.583 62.0642 11.391C61.9322 11.199 61.7132 11.103 61.4072 11.103C61.1912 11.103 60.9902 11.16 60.8042 11.274C60.6182 11.382 60.4022 11.559 60.1562 11.805V15H59.5082V10.635ZM65.1059 15.108C64.8599 15.108 64.6799 15.033 64.5659 14.883C64.4519 14.727 64.3949 14.499 64.3949 14.199V8.574H65.0429V14.253C65.0429 14.355 65.0609 14.433 65.0969 14.487C65.1389 14.535 65.1899 14.559 65.2499 14.559C65.2979 14.559 65.3519 14.553 65.4119 14.541L65.5019 15.045C65.3879 15.087 65.2559 15.108 65.1059 15.108ZM68.3099 15.108C67.9499 15.108 67.6169 15.018 67.3109 14.838C67.0049 14.652 66.7589 14.388 66.5729 14.046C66.3929 13.698 66.3029 13.29 66.3029 12.822C66.3029 12.354 66.3929 11.946 66.5729 11.598C66.7589 11.25 67.0049 10.986 67.3109 10.806C67.6169 10.62 67.9499 10.527 68.3099 10.527C68.6699 10.527 69.0029 10.62 69.3089 10.806C69.6149 10.986 69.8579 11.25 70.0379 11.598C70.2239 11.946 70.3169 12.354 70.3169 12.822C70.3169 13.29 70.2239 13.698 70.0379 14.046C69.8579 14.388 69.6149 14.652 69.3089 14.838C69.0029 15.018 68.6699 15.108 68.3099 15.108ZM68.3099 14.559C68.5679 14.559 68.7959 14.487 68.9939 14.343C69.1979 14.199 69.3569 13.995 69.4709 13.731C69.5849 13.467 69.6419 13.164 69.6419 12.822C69.6419 12.48 69.5849 12.177 69.4709 11.913C69.3569 11.649 69.1979 11.445 68.9939 11.301C68.7959 11.151 68.5679 11.076 68.3099 11.076C68.0519 11.076 67.8209 11.151 67.6169 11.301C67.4189 11.445 67.2629 11.649 67.1489 11.913C67.0409 12.177 66.9869 12.48 66.9869 12.822C66.9869 13.344 67.1099 13.764 67.3559 14.082C67.6019 14.4 67.9199 14.559 68.3099 14.559ZM72.3722 15.108C72.0002 15.108 71.6942 15 71.4542 14.784C71.2142 14.568 71.0942 14.265 71.0942 13.875C71.0942 13.401 71.3102 13.038 71.7422 12.786C72.1742 12.528 72.8642 12.348 73.8122 12.246C73.8122 11.904 73.7402 11.625 73.5962 11.409C73.4582 11.187 73.2182 11.076 72.8762 11.076C72.4622 11.076 72.0212 11.235 71.5532 11.553L71.2922 11.103C71.8682 10.719 72.4322 10.527 72.9842 10.527C73.4882 10.527 73.8602 10.686 74.1002 11.004C74.3402 11.316 74.4602 11.748 74.4602 12.3V15H73.9202L73.8662 14.469H73.8392C73.3232 14.895 72.8342 15.108 72.3722 15.108ZM72.5432 14.577C72.7532 14.577 72.9572 14.529 73.1552 14.433C73.3592 14.331 73.5782 14.175 73.8122 13.965V12.687C73.0622 12.777 72.5282 12.915 72.2102 13.101C71.8982 13.287 71.7422 13.533 71.7422 13.839C71.7422 14.085 71.8172 14.271 71.9672 14.397C72.1172 14.517 72.3092 14.577 72.5432 14.577ZM77.358 15.108C76.806 15.108 76.368 14.907 76.044 14.505C75.726 14.103 75.567 13.542 75.567 12.822C75.567 12.366 75.654 11.964 75.828 11.616C76.002 11.268 76.233 11.001 76.521 10.815C76.815 10.623 77.13 10.527 77.466 10.527C77.7 10.527 77.91 10.569 78.096 10.653C78.282 10.737 78.486 10.866 78.708 11.04L78.681 10.284V8.574H79.329V15H78.789L78.735 14.469H78.708C78.522 14.661 78.312 14.817 78.078 14.937C77.85 15.051 77.61 15.108 77.358 15.108ZM77.502 14.55C77.712 14.55 77.91 14.499 78.096 14.397C78.288 14.295 78.483 14.139 78.681 13.929V11.562C78.489 11.394 78.303 11.274 78.123 11.202C77.943 11.124 77.757 11.085 77.565 11.085C77.319 11.085 77.094 11.16 76.89 11.31C76.692 11.46 76.533 11.667 76.413 11.931C76.299 12.195 76.242 12.492 76.242 12.822C76.242 13.362 76.35 13.785 76.566 14.091C76.788 14.397 77.1 14.55 77.502 14.55ZM82.0016 10.635H82.6766L83.5406 13.182L83.9546 14.46H83.9906L84.4046 13.182L85.2686 10.635H85.9166L84.3506 15H83.5946L82.0016 10.635ZM86.7894 10.635H87.4374V15H86.7894V10.635ZM87.1224 9.699C86.9904 9.699 86.8824 9.657 86.7984 9.573C86.7144 9.489 86.6724 9.378 86.6724 9.24C86.6724 9.108 86.7144 9.003 86.7984 8.925C86.8824 8.841 86.9904 8.799 87.1224 8.799C87.2544 8.799 87.3624 8.841 87.4464 8.925C87.5304 9.003 87.5724 9.108 87.5724 9.24C87.5724 9.378 87.5304 9.489 87.4464 9.573C87.3624 9.657 87.2544 9.699 87.1224 9.699ZM89.9591 15.108C89.5871 15.108 89.2811 15 89.0411 14.784C88.8011 14.568 88.6811 14.265 88.6811 13.875C88.6811 13.401 88.8971 13.038 89.3291 12.786C89.7611 12.528 90.4511 12.348 91.3991 12.246C91.3991 11.904 91.3271 11.625 91.1831 11.409C91.0451 11.187 90.8051 11.076 90.4631 11.076C90.0491 11.076 89.6081 11.235 89.1401 11.553L88.8791 11.103C89.4551 10.719 90.0191 10.527 90.5711 10.527C91.0751 10.527 91.4471 10.686 91.6871 11.004C91.9271 11.316 92.0471 11.748 92.0471 12.3V15H91.5071L91.4531 14.469H91.4261C90.9101 14.895 90.4211 15.108 89.9591 15.108ZM90.1301 14.577C90.3401 14.577 90.5441 14.529 90.7421 14.433C90.9461 14.331 91.1651 14.175 91.3991 13.965V12.687C90.6491 12.777 90.1151 12.915 89.7971 13.101C89.4851 13.287 89.3291 13.533 89.3291 13.839C89.3291 14.085 89.4041 14.271 89.5541 14.397C89.7041 14.517 89.8961 14.577 90.1301 14.577Z" fill="#404040"/>
<path d="M47.992 27.881H45.327L44.755 30H42.935L45.639 21.511H47.758L50.449 30H48.564L47.992 27.881ZM47.628 26.503L47.394 25.632C47.29 25.2507 47.134 24.6527 46.926 23.838L46.679 22.876H46.627C46.367 23.994 46.1373 24.9127 45.938 25.632L45.704 26.503H47.628ZM51.2727 23.565H52.7157L52.8457 24.215H52.8977C53.1663 23.9723 53.461 23.7773 53.7817 23.63C54.111 23.4827 54.436 23.409 54.7567 23.409C55.5367 23.409 56.152 23.7037 56.6027 24.293C57.0533 24.8823 57.2787 25.6797 57.2787 26.685C57.2787 27.387 57.153 28.0023 56.9017 28.531C56.6503 29.0597 56.3167 29.4627 55.9007 29.74C55.4847 30.0173 55.0383 30.156 54.5617 30.156C54.0157 30.156 53.4913 29.9263 52.9887 29.467L53.0407 30.507V32.444H51.2727V23.565ZM54.1587 28.7C54.54 28.7 54.852 28.531 55.0947 28.193C55.3373 27.855 55.4587 27.3567 55.4587 26.698C55.4587 25.476 55.0557 24.865 54.2497 24.865C53.851 24.865 53.448 25.073 53.0407 25.489V28.245C53.3873 28.5483 53.76 28.7 54.1587 28.7ZM58.6867 23.565H60.1297L60.2597 24.215H60.3117C60.5804 23.9723 60.8751 23.7773 61.1957 23.63C61.5251 23.4827 61.8501 23.409 62.1707 23.409C62.9507 23.409 63.5661 23.7037 64.0167 24.293C64.4674 24.8823 64.6927 25.6797 64.6927 26.685C64.6927 27.387 64.5671 28.0023 64.3157 28.531C64.0644 29.0597 63.7307 29.4627 63.3147 29.74C62.8987 30.0173 62.4524 30.156 61.9757 30.156C61.4297 30.156 60.9054 29.9263 60.4027 29.467L60.4547 30.507V32.444H58.6867V23.565ZM61.5727 28.7C61.9541 28.7 62.2661 28.531 62.5087 28.193C62.7514 27.855 62.8727 27.3567 62.8727 26.698C62.8727 25.476 62.4697 24.865 61.6637 24.865C61.2651 24.865 60.8621 25.073 60.4547 25.489V28.245C60.8014 28.5483 61.1741 28.7 61.5727 28.7ZM67.7518 30.156C67.1711 30.156 66.7508 29.9783 66.4908 29.623C66.2308 29.2677 66.1008 28.765 66.1008 28.115V20.861H67.8688V28.193C67.8688 28.375 67.9035 28.5093 67.9728 28.596C68.0421 28.674 68.1201 28.713 68.2068 28.713C68.2935 28.713 68.3715 28.7043 68.4408 28.687L68.6618 30.013C68.4105 30.1083 68.1071 30.156 67.7518 30.156ZM75.087 26.49C75.087 26.8193 75.061 27.088 75.009 27.296H71.031C71.1177 27.8073 71.3257 28.1843 71.655 28.427C71.993 28.6697 72.383 28.791 72.825 28.791C73.2844 28.791 73.761 28.648 74.255 28.362L74.84 29.441C74.5194 29.6663 74.1597 29.844 73.761 29.974C73.371 30.0953 72.981 30.156 72.591 30.156C71.9844 30.156 71.434 30.0217 70.94 29.753C70.4547 29.4843 70.069 29.0943 69.783 28.583C69.5057 28.0717 69.367 27.4737 69.367 26.789C69.367 26.113 69.5057 25.5193 69.783 25.008C70.069 24.4967 70.4417 24.1023 70.901 23.825C71.3604 23.5477 71.85 23.409 72.37 23.409C73.2454 23.409 73.917 23.695 74.385 24.267C74.853 24.8303 75.087 25.5713 75.087 26.49ZM73.566 26.113C73.566 25.697 73.4707 25.372 73.28 25.138C73.0894 24.8953 72.799 24.774 72.409 24.774C72.0884 24.774 71.8024 24.8867 71.551 25.112C71.3084 25.3287 71.1437 25.6623 71.057 26.113H73.566ZM81.7413 30.156C81.1693 30.156 80.6103 30.052 80.0643 29.844C79.5183 29.6273 79.0373 29.3197 78.6213 28.921L79.6483 27.699C79.9603 27.9763 80.3027 28.1973 80.6753 28.362C81.0567 28.5267 81.425 28.609 81.7803 28.609C82.1963 28.609 82.5127 28.531 82.7293 28.375C82.9547 28.2103 83.0673 27.985 83.0673 27.699C83.0673 27.517 83.0153 27.3653 82.9113 27.244C82.816 27.1227 82.6903 27.023 82.5343 26.945C82.387 26.867 82.1443 26.7587 81.8063 26.62L80.6883 26.139C80.1857 25.931 79.774 25.6407 79.4533 25.268C79.1327 24.8867 78.9723 24.41 78.9723 23.838C78.9723 23.3787 79.098 22.9627 79.3493 22.59C79.6093 22.2087 79.9647 21.9097 80.4153 21.693C80.866 21.4677 81.373 21.355 81.9363 21.355C82.4303 21.355 82.9157 21.4547 83.3923 21.654C83.869 21.8447 84.2807 22.1133 84.6273 22.46L83.7303 23.591C83.4357 23.357 83.1453 23.1837 82.8593 23.071C82.5733 22.9583 82.2657 22.902 81.9363 22.902C81.581 22.902 81.2993 22.9757 81.0913 23.123C80.8833 23.2703 80.7793 23.474 80.7793 23.734C80.7793 23.916 80.8313 24.0677 80.9353 24.189C81.048 24.3103 81.1823 24.41 81.3383 24.488C81.503 24.566 81.7543 24.6743 82.0923 24.813L83.1843 25.255C83.7303 25.4803 84.1507 25.7793 84.4453 26.152C84.74 26.516 84.8873 26.984 84.8873 27.556C84.8873 28.0327 84.7617 28.4703 84.5103 28.869C84.259 29.259 83.895 29.571 83.4183 29.805C82.9417 30.039 82.3827 30.156 81.7413 30.156ZM88.247 30.156C87.5017 30.156 86.9557 29.9437 86.609 29.519C86.2623 29.0857 86.089 28.4833 86.089 27.712V24.969H85.192V23.643L86.18 23.565L86.388 21.849H87.857V23.565H89.43V24.969H87.857V27.699C87.857 28.401 88.143 28.752 88.715 28.752C88.897 28.752 89.1093 28.7087 89.352 28.622L89.638 29.922C89.17 30.078 88.7063 30.156 88.247 30.156ZM93.2182 30.156C92.6635 30.156 92.1479 30.0217 91.6712 29.753C91.2032 29.4843 90.8262 29.0943 90.5402 28.583C90.2542 28.0717 90.1112 27.4737 90.1112 26.789C90.1112 26.0957 90.2542 25.4933 90.5402 24.982C90.8262 24.4707 91.2032 24.0807 91.6712 23.812C92.1479 23.5433 92.6635 23.409 93.2182 23.409C93.7642 23.409 94.2755 23.5433 94.7522 23.812C95.2289 24.0807 95.6102 24.475 95.8962 24.995C96.1822 25.5063 96.3252 26.1043 96.3252 26.789C96.3252 27.4737 96.1822 28.0717 95.8962 28.583C95.6102 29.0943 95.2289 29.4843 94.7522 29.753C94.2755 30.0217 93.7642 30.156 93.2182 30.156ZM93.2182 28.713C93.6255 28.713 93.9419 28.544 94.1672 28.206C94.3925 27.8593 94.5052 27.387 94.5052 26.789C94.5052 26.191 94.3925 25.7187 94.1672 25.372C93.9419 25.0253 93.6255 24.852 93.2182 24.852C92.8022 24.852 92.4815 25.0253 92.2562 25.372C92.0395 25.7187 91.9312 26.191 91.9312 26.789C91.9312 27.387 92.0395 27.8593 92.2562 28.206C92.4815 28.544 92.8022 28.713 93.2182 28.713ZM97.6867 23.565H99.1297L99.2597 24.696H99.3117C99.5371 24.28 99.8101 23.9637 100.131 23.747C100.46 23.5217 100.794 23.409 101.132 23.409C101.435 23.409 101.686 23.4523 101.886 23.539L101.587 25.073C101.561 25.0643 101.483 25.047 101.353 25.021C101.223 24.9863 101.075 24.969 100.911 24.969C100.633 24.969 100.365 25.0687 100.105 25.268C99.8447 25.4673 99.6281 25.7793 99.4547 26.204V30H97.6867V23.565ZM107.943 26.49C107.943 26.8193 107.917 27.088 107.865 27.296H103.887C103.973 27.8073 104.181 28.1843 104.511 28.427C104.849 28.6697 105.239 28.791 105.681 28.791C106.14 28.791 106.617 28.648 107.111 28.362L107.696 29.441C107.375 29.6663 107.015 29.844 106.617 29.974C106.227 30.0953 105.837 30.156 105.447 30.156C104.84 30.156 104.29 30.0217 103.796 29.753C103.31 29.4843 102.925 29.0943 102.639 28.583C102.361 28.0717 102.223 27.4737 102.223 26.789C102.223 26.113 102.361 25.5193 102.639 25.008C102.925 24.4967 103.297 24.1023 103.757 23.825C104.216 23.5477 104.706 23.409 105.226 23.409C106.101 23.409 106.773 23.695 107.241 24.267C107.709 24.8303 107.943 25.5713 107.943 26.49ZM106.422 26.113C106.422 25.697 106.326 25.372 106.136 25.138C105.945 24.8953 105.655 24.774 105.265 24.774C104.944 24.774 104.658 24.8867 104.407 25.112C104.164 25.3287 103.999 25.6623 103.913 26.113H106.422Z" fill="#404040"/>
<path d="M15.0097 20.8722C14.8389 17.858 16.9487 14.7813 20.0511 14.7813C20.7655 14.7813 21.0895 14.9505 21.8676 15.1971C22.2842 15.3291 22.9902 15.696 23.3984 15.696C23.8066 15.696 24.2964 15.4257 24.9572 15.1789C25.8946 14.8287 26.449 14.7913 26.9906 14.7813C28.8072 14.7813 30.1408 15.5548 30.9911 16.7562C29.5876 17.6864 28.848 18.8142 28.8071 20.6436C28.8071 22.3066 29.8481 23.9281 31.5217 24.6557C31.1135 26.4019 28.9092 29.9983 27.0927 29.9983C26.4689 29.9619 26.0856 29.8628 25.3578 29.5825C24.8155 29.3404 24.0923 29.1667 23.6229 29.1667C23.133 29.146 22.584 29.3077 21.8982 29.5825C21.3165 29.8156 20.9699 29.9479 20.1735 29.9983C18.6631 30.0937 15.3123 26.2148 15.0097 20.8722Z" fill="#404040"/>
<path d="M24.3781 11.5383C23.5355 12.4625 23.2147 13.6795 23.2759 14.7813C24.6638 14.6774 25.6231 14.0953 26.5008 13.0143C27.3784 11.9333 27.3849 11.1478 27.3784 10C26.3569 10.1693 25.1741 10.6652 24.3781 11.5383Z" fill="#404040"/>
</svg>
