<svg width="140" height="40" viewBox="0 0 140 40" fill="none" xmlns="http://www.w3.org/2000/svg">
<rect width="140" height="40" rx="5" fill="#EBE7E1"/>
<path fill-rule="evenodd" clip-rule="evenodd" d="M14.4104 10.2083C14.16 10.4664 14 10.82 14 11.2294V28.3578C14 28.8292 14.212 29.2265 14.53 29.4893L24.1107 19.9086L14.4104 10.2083ZM25.1512 20.9491L16.8501 29.2502L27.2634 23.0613L25.1512 20.9491ZM28.5687 22.2855L26.1917 19.9086L28.7129 17.3874L30.6331 18.5287C31.5927 19.099 31.5927 20.4882 30.6331 21.0586L28.5687 22.2855ZM25.1512 18.8681L16.2831 10L27.4077 16.6117L25.1512 18.8681Z" fill="#404040"/>
<path d="M44.828 9.087H46.277C47.177 9.087 47.861 9.342 48.329 9.852C48.803 10.362 49.04 11.085 49.04 12.021C49.04 12.957 48.803 13.689 48.329 14.217C47.861 14.739 47.186 15 46.304 15H44.828V9.087ZM46.223 14.451C46.931 14.451 47.462 14.241 47.816 13.821C48.176 13.395 48.356 12.795 48.356 12.021C48.356 11.259 48.176 10.671 47.816 10.257C47.462 9.843 46.931 9.636 46.223 9.636H45.494V14.451H46.223ZM51.9495 15.108C51.5895 15.108 51.2565 15.018 50.9505 14.838C50.6445 14.652 50.3985 14.388 50.2125 14.046C50.0325 13.698 49.9425 13.29 49.9425 12.822C49.9425 12.354 50.0325 11.946 50.2125 11.598C50.3985 11.25 50.6445 10.986 50.9505 10.806C51.2565 10.62 51.5895 10.527 51.9495 10.527C52.3095 10.527 52.6425 10.62 52.9485 10.806C53.2545 10.986 53.4975 11.25 53.6775 11.598C53.8635 11.946 53.9565 12.354 53.9565 12.822C53.9565 13.29 53.8635 13.698 53.6775 14.046C53.4975 14.388 53.2545 14.652 52.9485 14.838C52.6425 15.018 52.3095 15.108 51.9495 15.108ZM51.9495 14.559C52.2075 14.559 52.4355 14.487 52.6335 14.343C52.8375 14.199 52.9965 13.995 53.1105 13.731C53.2245 13.467 53.2815 13.164 53.2815 12.822C53.2815 12.48 53.2245 12.177 53.1105 11.913C52.9965 11.649 52.8375 11.445 52.6335 11.301C52.4355 11.151 52.2075 11.076 51.9495 11.076C51.6915 11.076 51.4605 11.151 51.2565 11.301C51.0585 11.445 50.9025 11.649 50.7885 11.913C50.6805 12.177 50.6265 12.48 50.6265 12.822C50.6265 13.344 50.7495 13.764 50.9955 14.082C51.2415 14.4 51.5595 14.559 51.9495 14.559ZM54.5695 10.635H55.2445L55.9285 13.236L56.0095 13.623C56.0935 13.983 56.1535 14.256 56.1895 14.442H56.2255C56.3395 13.974 56.4415 13.572 56.5315 13.236L57.2335 10.635H57.8905L58.6015 13.236L58.9075 14.442H58.9435L59.2315 13.236L59.8975 10.635H60.5275L59.3395 15H58.5295L57.8635 12.561L57.6925 11.85C57.6805 11.802 57.6385 11.622 57.5665 11.31H57.5305C57.3985 11.904 57.2935 12.327 57.2155 12.579L56.5675 15H55.8025L54.5695 10.635ZM61.5082 10.635H62.0482L62.1022 11.283H62.1292C62.3692 11.043 62.6032 10.857 62.8312 10.725C63.0652 10.593 63.3202 10.527 63.5962 10.527C64.0522 10.527 64.3882 10.671 64.6042 10.959C64.8202 11.241 64.9282 11.664 64.9282 12.228V15H64.2712V12.309C64.2712 11.889 64.2022 11.583 64.0642 11.391C63.9322 11.199 63.7132 11.103 63.4072 11.103C63.1912 11.103 62.9902 11.16 62.8042 11.274C62.6182 11.382 62.4022 11.559 62.1562 11.805V15H61.5082V10.635ZM67.1059 15.108C66.8599 15.108 66.6799 15.033 66.5659 14.883C66.4519 14.727 66.3949 14.499 66.3949 14.199V8.574H67.0429V14.253C67.0429 14.355 67.0609 14.433 67.0969 14.487C67.1389 14.535 67.1899 14.559 67.2499 14.559C67.2979 14.559 67.3519 14.553 67.4119 14.541L67.5019 15.045C67.3879 15.087 67.2559 15.108 67.1059 15.108ZM70.3099 15.108C69.9499 15.108 69.6169 15.018 69.3109 14.838C69.0049 14.652 68.7589 14.388 68.5729 14.046C68.3929 13.698 68.3029 13.29 68.3029 12.822C68.3029 12.354 68.3929 11.946 68.5729 11.598C68.7589 11.25 69.0049 10.986 69.3109 10.806C69.6169 10.62 69.9499 10.527 70.3099 10.527C70.6699 10.527 71.0029 10.62 71.3089 10.806C71.6149 10.986 71.8579 11.25 72.0379 11.598C72.2239 11.946 72.3169 12.354 72.3169 12.822C72.3169 13.29 72.2239 13.698 72.0379 14.046C71.8579 14.388 71.6149 14.652 71.3089 14.838C71.0029 15.018 70.6699 15.108 70.3099 15.108ZM70.3099 14.559C70.5679 14.559 70.7959 14.487 70.9939 14.343C71.1979 14.199 71.3569 13.995 71.4709 13.731C71.5849 13.467 71.6419 13.164 71.6419 12.822C71.6419 12.48 71.5849 12.177 71.4709 11.913C71.3569 11.649 71.1979 11.445 70.9939 11.301C70.7959 11.151 70.5679 11.076 70.3099 11.076C70.0519 11.076 69.8209 11.151 69.6169 11.301C69.4189 11.445 69.2629 11.649 69.1489 11.913C69.0409 12.177 68.9869 12.48 68.9869 12.822C68.9869 13.344 69.1099 13.764 69.3559 14.082C69.6019 14.4 69.9199 14.559 70.3099 14.559ZM74.3722 15.108C74.0002 15.108 73.6942 15 73.4542 14.784C73.2142 14.568 73.0942 14.265 73.0942 13.875C73.0942 13.401 73.3102 13.038 73.7422 12.786C74.1742 12.528 74.8642 12.348 75.8122 12.246C75.8122 11.904 75.7402 11.625 75.5962 11.409C75.4582 11.187 75.2182 11.076 74.8762 11.076C74.4622 11.076 74.0212 11.235 73.5532 11.553L73.2922 11.103C73.8682 10.719 74.4322 10.527 74.9842 10.527C75.4882 10.527 75.8602 10.686 76.1002 11.004C76.3402 11.316 76.4602 11.748 76.4602 12.3V15H75.9202L75.8662 14.469H75.8392C75.3232 14.895 74.8342 15.108 74.3722 15.108ZM74.5432 14.577C74.7532 14.577 74.9572 14.529 75.1552 14.433C75.3592 14.331 75.5782 14.175 75.8122 13.965V12.687C75.0622 12.777 74.5282 12.915 74.2102 13.101C73.8982 13.287 73.7422 13.533 73.7422 13.839C73.7422 14.085 73.8172 14.271 73.9672 14.397C74.1172 14.517 74.3092 14.577 74.5432 14.577ZM79.358 15.108C78.806 15.108 78.368 14.907 78.044 14.505C77.726 14.103 77.567 13.542 77.567 12.822C77.567 12.366 77.654 11.964 77.828 11.616C78.002 11.268 78.233 11.001 78.521 10.815C78.815 10.623 79.13 10.527 79.466 10.527C79.7 10.527 79.91 10.569 80.096 10.653C80.282 10.737 80.486 10.866 80.708 11.04L80.681 10.284V8.574H81.329V15H80.789L80.735 14.469H80.708C80.522 14.661 80.312 14.817 80.078 14.937C79.85 15.051 79.61 15.108 79.358 15.108ZM79.502 14.55C79.712 14.55 79.91 14.499 80.096 14.397C80.288 14.295 80.483 14.139 80.681 13.929V11.562C80.489 11.394 80.303 11.274 80.123 11.202C79.943 11.124 79.757 11.085 79.565 11.085C79.319 11.085 79.094 11.16 78.89 11.31C78.692 11.46 78.533 11.667 78.413 11.931C78.299 12.195 78.242 12.492 78.242 12.822C78.242 13.362 78.35 13.785 78.566 14.091C78.788 14.397 79.1 14.55 79.502 14.55ZM84.0016 10.635H84.6766L85.5406 13.182L85.9546 14.46H85.9906L86.4046 13.182L87.2686 10.635H87.9166L86.3506 15H85.5946L84.0016 10.635ZM88.7894 10.635H89.4374V15H88.7894V10.635ZM89.1224 9.699C88.9904 9.699 88.8824 9.657 88.7984 9.573C88.7144 9.489 88.6724 9.378 88.6724 9.24C88.6724 9.108 88.7144 9.003 88.7984 8.925C88.8824 8.841 88.9904 8.799 89.1224 8.799C89.2544 8.799 89.3624 8.841 89.4464 8.925C89.5304 9.003 89.5724 9.108 89.5724 9.24C89.5724 9.378 89.5304 9.489 89.4464 9.573C89.3624 9.657 89.2544 9.699 89.1224 9.699ZM91.9591 15.108C91.5871 15.108 91.2811 15 91.0411 14.784C90.8011 14.568 90.6811 14.265 90.6811 13.875C90.6811 13.401 90.8971 13.038 91.3291 12.786C91.7611 12.528 92.4511 12.348 93.3991 12.246C93.3991 11.904 93.3271 11.625 93.1831 11.409C93.0451 11.187 92.8051 11.076 92.4631 11.076C92.0491 11.076 91.6081 11.235 91.1401 11.553L90.8791 11.103C91.4551 10.719 92.0191 10.527 92.5711 10.527C93.0751 10.527 93.4471 10.686 93.6871 11.004C93.9271 11.316 94.0471 11.748 94.0471 12.3V15H93.5071L93.4531 14.469H93.4261C92.9101 14.895 92.4211 15.108 91.9591 15.108ZM92.1301 14.577C92.3401 14.577 92.5441 14.529 92.7421 14.433C92.9461 14.331 93.1651 14.175 93.3991 13.965V12.687C92.6491 12.777 92.1151 12.915 91.7971 13.101C91.4851 13.287 91.3291 13.533 91.3291 13.839C91.3291 14.085 91.4041 14.271 91.5541 14.397C91.7041 14.517 91.8961 14.577 92.1301 14.577Z" fill="#404040"/>
<path d="M49.719 30.156C48.9303 30.156 48.224 29.987 47.6 29.649C46.9847 29.311 46.4993 28.817 46.144 28.167C45.7887 27.5083 45.611 26.7197 45.611 25.801C45.611 24.891 45.793 24.1023 46.157 23.435C46.521 22.759 47.0107 22.2433 47.626 21.888C48.25 21.5327 48.9433 21.355 49.706 21.355C50.7373 21.355 51.617 21.719 52.345 22.447L51.409 23.591C51.1663 23.3657 50.915 23.1967 50.655 23.084C50.4037 22.9627 50.109 22.902 49.771 22.902C49.069 22.902 48.5057 23.1577 48.081 23.669C47.6563 24.1717 47.444 24.8607 47.444 25.736C47.444 26.6547 47.652 27.3653 48.068 27.868C48.484 28.362 49.095 28.609 49.901 28.609C50.0917 28.609 50.278 28.583 50.46 28.531C50.642 28.479 50.7893 28.4097 50.902 28.323V26.737H49.433V25.281H52.488V29.129C52.176 29.4323 51.7773 29.6793 51.292 29.87C50.8067 30.0607 50.2823 30.156 49.719 30.156ZM56.853 30.156C56.2983 30.156 55.7826 30.0217 55.306 29.753C54.838 29.4843 54.461 29.0943 54.175 28.583C53.889 28.0717 53.746 27.4737 53.746 26.789C53.746 26.0957 53.889 25.4933 54.175 24.982C54.461 24.4707 54.838 24.0807 55.306 23.812C55.7826 23.5433 56.2983 23.409 56.853 23.409C57.399 23.409 57.9103 23.5433 58.387 23.812C58.8636 24.0807 59.245 24.475 59.531 24.995C59.817 25.5063 59.96 26.1043 59.96 26.789C59.96 27.4737 59.817 28.0717 59.531 28.583C59.245 29.0943 58.8636 29.4843 58.387 29.753C57.9103 30.0217 57.399 30.156 56.853 30.156ZM56.853 28.713C57.2603 28.713 57.5766 28.544 57.802 28.206C58.0273 27.8593 58.14 27.387 58.14 26.789C58.14 26.191 58.0273 25.7187 57.802 25.372C57.5766 25.0253 57.2603 24.852 56.853 24.852C56.437 24.852 56.1163 25.0253 55.891 25.372C55.6743 25.7187 55.566 26.191 55.566 26.789C55.566 27.387 55.6743 27.8593 55.891 28.206C56.1163 28.544 56.437 28.713 56.853 28.713ZM64.0385 30.156C63.4838 30.156 62.9682 30.0217 62.4915 29.753C62.0235 29.4843 61.6465 29.0943 61.3605 28.583C61.0745 28.0717 60.9315 27.4737 60.9315 26.789C60.9315 26.0957 61.0745 25.4933 61.3605 24.982C61.6465 24.4707 62.0235 24.0807 62.4915 23.812C62.9682 23.5433 63.4838 23.409 64.0385 23.409C64.5845 23.409 65.0958 23.5433 65.5725 23.812C66.0492 24.0807 66.4305 24.475 66.7165 24.995C67.0025 25.5063 67.1455 26.1043 67.1455 26.789C67.1455 27.4737 67.0025 28.0717 66.7165 28.583C66.4305 29.0943 66.0492 29.4843 65.5725 29.753C65.0958 30.0217 64.5845 30.156 64.0385 30.156ZM64.0385 28.713C64.4458 28.713 64.7622 28.544 64.9875 28.206C65.2128 27.8593 65.3255 27.387 65.3255 26.789C65.3255 26.191 65.2128 25.7187 64.9875 25.372C64.7622 25.0253 64.4458 24.852 64.0385 24.852C63.6225 24.852 63.3018 25.0253 63.0765 25.372C62.8598 25.7187 62.7515 26.191 62.7515 26.789C62.7515 27.387 62.8598 27.8593 63.0765 28.206C63.3018 28.544 63.6225 28.713 64.0385 28.713ZM70.782 32.769C69.9847 32.769 69.3347 32.6303 68.832 32.353C68.338 32.0757 68.091 31.6683 68.091 31.131C68.091 30.5937 68.3987 30.1517 69.014 29.805V29.753C68.624 29.5017 68.429 29.1377 68.429 28.661C68.429 28.4357 68.494 28.2147 68.624 27.998C68.7627 27.7813 68.936 27.6037 69.144 27.465V27.413C68.8927 27.2397 68.6847 27.0057 68.52 26.711C68.364 26.4163 68.286 26.0913 68.286 25.736C68.286 25.2507 68.403 24.8347 68.637 24.488C68.8797 24.1327 69.2004 23.864 69.599 23.682C69.9977 23.5 70.431 23.409 70.899 23.409C71.2284 23.409 71.5577 23.461 71.887 23.565H74.214V24.865H73.135C73.213 24.969 73.278 25.1077 73.33 25.281C73.382 25.4457 73.408 25.6147 73.408 25.788C73.408 26.49 73.174 27.0273 72.706 27.4C72.238 27.7727 71.6357 27.959 70.899 27.959C70.6304 27.959 70.3617 27.9157 70.093 27.829C70.0064 27.907 69.9414 27.985 69.898 28.063C69.8547 28.1323 69.833 28.2277 69.833 28.349C69.833 28.5137 69.9067 28.6393 70.054 28.726C70.21 28.8127 70.4657 28.856 70.821 28.856H71.9C72.6974 28.856 73.2997 28.986 73.707 29.246C74.1144 29.506 74.318 29.9177 74.318 30.481C74.318 30.9143 74.1707 31.3043 73.876 31.651C73.59 32.0063 73.1784 32.2793 72.641 32.47C72.1124 32.6693 71.4927 32.769 70.782 32.769ZM70.899 26.88C71.185 26.88 71.4147 26.7803 71.588 26.581C71.77 26.3817 71.861 26.1 71.861 25.736C71.861 25.3807 71.77 25.1077 71.588 24.917C71.4147 24.7177 71.185 24.618 70.899 24.618C70.613 24.618 70.3834 24.7177 70.21 24.917C70.0367 25.1077 69.95 25.3807 69.95 25.736C69.95 26.0913 70.0367 26.373 70.21 26.581C70.392 26.7803 70.6217 26.88 70.899 26.88ZM71.055 31.651C71.5057 31.651 71.8784 31.5643 72.173 31.391C72.4677 31.2263 72.615 31.0227 72.615 30.78C72.615 30.572 72.5327 30.429 72.368 30.351C72.2034 30.273 71.9434 30.234 71.588 30.234H70.847C70.4657 30.234 70.171 30.2037 69.963 30.143C69.6944 30.3597 69.56 30.5937 69.56 30.845C69.56 31.105 69.6944 31.3043 69.963 31.443C70.2317 31.5817 70.5957 31.651 71.055 31.651ZM77.0516 30.156C76.4709 30.156 76.0506 29.9783 75.7906 29.623C75.5306 29.2677 75.4006 28.765 75.4006 28.115V20.861H77.1686V28.193C77.1686 28.375 77.2033 28.5093 77.2726 28.596C77.3419 28.674 77.4199 28.713 77.5066 28.713C77.5933 28.713 77.6713 28.7043 77.7406 28.687L77.9616 30.013C77.7103 30.1083 77.4069 30.156 77.0516 30.156ZM84.3869 26.49C84.3869 26.8193 84.3609 27.088 84.3089 27.296H80.3309C80.4175 27.8073 80.6255 28.1843 80.9549 28.427C81.2929 28.6697 81.6829 28.791 82.1249 28.791C82.5842 28.791 83.0609 28.648 83.5549 28.362L84.1399 29.441C83.8192 29.6663 83.4595 29.844 83.0609 29.974C82.6709 30.0953 82.2809 30.156 81.8909 30.156C81.2842 30.156 80.7339 30.0217 80.2399 29.753C79.7545 29.4843 79.3689 29.0943 79.0829 28.583C78.8055 28.0717 78.6669 27.4737 78.6669 26.789C78.6669 26.113 78.8055 25.5193 79.0829 25.008C79.3689 24.4967 79.7415 24.1023 80.2009 23.825C80.6602 23.5477 81.1499 23.409 81.6699 23.409C82.5452 23.409 83.2169 23.695 83.6849 24.267C84.1529 24.8303 84.3869 25.5713 84.3869 26.49ZM82.8659 26.113C82.8659 25.697 82.7705 25.372 82.5799 25.138C82.3892 24.8953 82.0989 24.774 81.7089 24.774C81.3882 24.774 81.1022 24.8867 80.8509 25.112C80.6082 25.3287 80.4435 25.6623 80.3569 26.113H82.8659ZM88.4801 21.511H91.3141C92.3368 21.511 93.1471 21.7233 93.7451 22.148C94.3518 22.564 94.6551 23.2487 94.6551 24.202C94.6551 25.138 94.3475 25.8443 93.7321 26.321C93.1168 26.7977 92.3281 27.036 91.3661 27.036H90.2611V30H88.4801V21.511ZM91.2491 25.619C92.3585 25.619 92.9131 25.1467 92.9131 24.202C92.9131 23.7513 92.7701 23.4263 92.4841 23.227C92.2068 23.0277 91.7778 22.928 91.1971 22.928H90.2611V25.619H91.2491ZM97.6815 30.156C97.1008 30.156 96.6805 29.9783 96.4205 29.623C96.1605 29.2677 96.0305 28.765 96.0305 28.115V20.861H97.7985V28.193C97.7985 28.375 97.8332 28.5093 97.9025 28.596C97.9718 28.674 98.0498 28.713 98.1365 28.713C98.2232 28.713 98.3012 28.7043 98.3705 28.687L98.5915 30.013C98.3402 30.1083 98.0368 30.156 97.6815 30.156ZM101.286 30.156C100.714 30.156 100.25 29.974 99.8947 29.61C99.5481 29.246 99.3747 28.7867 99.3747 28.232C99.3747 27.5473 99.6651 27.0187 100.246 26.646C100.826 26.2647 101.758 26.0047 103.041 25.866C103.015 25.1727 102.659 24.826 101.975 24.826C101.706 24.826 101.433 24.878 101.156 24.982C100.878 25.086 100.575 25.2333 100.246 25.424L99.6087 24.254C100.519 23.6907 101.42 23.409 102.313 23.409C103.136 23.409 103.76 23.6517 104.185 24.137C104.609 24.6137 104.822 25.3287 104.822 26.282V30H103.366L103.236 29.324H103.197C102.555 29.8787 101.918 30.156 101.286 30.156ZM101.871 28.778C102.087 28.778 102.282 28.7303 102.456 28.635C102.638 28.531 102.833 28.3793 103.041 28.18V26.945C102.339 27.0403 101.836 27.1833 101.533 27.374C101.229 27.5647 101.078 27.803 101.078 28.089C101.078 28.3143 101.147 28.4877 101.286 28.609C101.424 28.7217 101.619 28.778 101.871 28.778ZM107.128 32.561C106.816 32.561 106.517 32.5177 106.231 32.431L106.556 31.066C106.738 31.1267 106.885 31.157 106.998 31.157C107.57 31.157 107.96 30.845 108.168 30.221L108.272 29.857L105.776 23.565H107.57L108.545 26.464C108.649 26.7673 108.77 27.1703 108.909 27.673C108.97 27.907 109.026 28.1107 109.078 28.284H109.13C109.243 27.79 109.394 27.1833 109.585 26.464L110.43 23.565H112.133L109.871 30.143C109.559 30.975 109.199 31.586 108.792 31.976C108.385 32.366 107.83 32.561 107.128 32.561Z" fill="#404040"/>
</svg>
