<svg width="213" height="60" viewBox="0 0 213 60" fill="none" xmlns="http://www.w3.org/2000/svg">
<path d="M13.5 0.444709C4.5 -0.555894 0 0.444709 0 0.444709V16.9447C0 16.9447 4 18.444 13.5 17.4447C23 16.4454 22.5 1.44531 13.5 0.444709Z" fill="#5F049A"/>
<path d="M65.5 0.944878C56.5 0.444878 24 0.944878 24 0.944878V16.9449H81.5C78.9629 6.69454 74.5 1.44488 65.5 0.944878Z" fill="#5F049A"/>
<path d="M16 21.9453H0.5V58.4453C0.5 58.4453 10 58.9453 14.5 58.4453C19 57.9453 19.5 53.9453 19.5 53.9453L20 27.9453C20 23.9453 19.6331 22.4379 16 21.9453Z" fill="white" stroke="white"/>
<path d="M65.4998 21.9453H23.9998L23.9355 58.4453H65.4998C84 56.9453 91 27.9453 65.4998 21.9453Z" fill="white" stroke="white"/>
<path d="M62.0458 37H42V42H62.0458C64.2851 40.0689 64.9937 39.2222 62.0458 37Z" fill="#101010" stroke="white"/>
<path d="M89.66 32V18H96.5C98.26 18 99.58 18.3333 100.46 19C101.353 19.6667 101.8 20.5467 101.8 21.64C101.8 22.3733 101.62 23.0133 101.26 23.56C100.9 24.0933 100.407 24.5067 99.78 24.8C99.1533 25.0933 98.4333 25.24 97.62 25.24L98 24.42C98.88 24.42 99.66 24.5667 100.34 24.86C101.02 25.14 101.547 25.56 101.92 26.12C102.307 26.68 102.5 27.3667 102.5 28.18C102.5 29.38 102.027 30.32 101.08 31C100.133 31.6667 98.74 32 96.9 32H89.66ZM92.88 29.56H96.66C97.5 29.56 98.1333 29.4267 98.56 29.16C99 28.88 99.22 28.44 99.22 27.84C99.22 27.2533 99 26.82 98.56 26.54C98.1333 26.2467 97.5 26.1 96.66 26.1H92.64V23.74H96.1C96.8867 23.74 97.4867 23.6067 97.9 23.34C98.3267 23.06 98.54 22.64 98.54 22.08C98.54 21.5333 98.3267 21.1267 97.9 20.86C97.4867 20.58 96.8867 20.44 96.1 20.44H92.88V29.56ZM111.753 32.24C110.646 32.24 109.62 32.06 108.673 31.7C107.74 31.34 106.926 30.8333 106.233 30.18C105.553 29.5267 105.02 28.76 104.633 27.88C104.26 27 104.073 26.04 104.073 25C104.073 23.96 104.26 23 104.633 22.12C105.02 21.24 105.56 20.4733 106.253 19.82C106.946 19.1667 107.76 18.66 108.693 18.3C109.626 17.94 110.64 17.76 111.733 17.76C112.84 17.76 113.853 17.94 114.773 18.3C115.706 18.66 116.513 19.1667 117.193 19.82C117.886 20.4733 118.426 21.24 118.813 22.12C119.2 22.9867 119.393 23.9467 119.393 25C119.393 26.04 119.2 27.0067 118.813 27.9C118.426 28.78 117.886 29.5467 117.193 30.2C116.513 30.84 115.706 31.34 114.773 31.7C113.853 32.06 112.846 32.24 111.753 32.24ZM111.733 29.48C112.36 29.48 112.933 29.3733 113.453 29.16C113.986 28.9467 114.453 28.64 114.853 28.24C115.253 27.84 115.56 27.3667 115.773 26.82C116 26.2733 116.113 25.6667 116.113 25C116.113 24.3333 116 23.7267 115.773 23.18C115.56 22.6333 115.253 22.16 114.853 21.76C114.466 21.36 114.006 21.0533 113.473 20.84C112.94 20.6267 112.36 20.52 111.733 20.52C111.106 20.52 110.526 20.6267 109.993 20.84C109.473 21.0533 109.013 21.36 108.613 21.76C108.213 22.16 107.9 22.6333 107.673 23.18C107.46 23.7267 107.353 24.3333 107.353 25C107.353 25.6533 107.46 26.26 107.673 26.82C107.9 27.3667 108.206 27.84 108.593 28.24C108.993 28.64 109.46 28.9467 109.993 29.16C110.526 29.3733 111.106 29.48 111.733 29.48ZM126.428 32.24C125.308 32.24 124.235 32.0933 123.208 31.8C122.181 31.4933 121.355 31.1 120.728 30.62L121.828 28.18C122.428 28.6067 123.135 28.96 123.948 29.24C124.775 29.5067 125.608 29.64 126.448 29.64C127.088 29.64 127.601 29.58 127.988 29.46C128.388 29.3267 128.681 29.1467 128.868 28.92C129.055 28.6933 129.148 28.4333 129.148 28.14C129.148 27.7667 129.001 27.4733 128.708 27.26C128.415 27.0333 128.028 26.8533 127.548 26.72C127.068 26.5733 126.535 26.44 125.948 26.32C125.375 26.1867 124.795 26.0267 124.208 25.84C123.635 25.6533 123.108 25.4133 122.628 25.12C122.148 24.8267 121.755 24.44 121.448 23.96C121.155 23.48 121.008 22.8667 121.008 22.12C121.008 21.32 121.221 20.5933 121.648 19.94C122.088 19.2733 122.741 18.7467 123.608 18.36C124.488 17.96 125.588 17.76 126.908 17.76C127.788 17.76 128.655 17.8667 129.508 18.08C130.361 18.28 131.115 18.5867 131.768 19L130.768 21.46C130.115 21.0867 129.461 20.8133 128.808 20.64C128.155 20.4533 127.515 20.36 126.888 20.36C126.261 20.36 125.748 20.4333 125.348 20.58C124.948 20.7267 124.661 20.92 124.488 21.16C124.315 21.3867 124.228 21.6533 124.228 21.96C124.228 22.32 124.375 22.6133 124.668 22.84C124.961 23.0533 125.348 23.2267 125.828 23.36C126.308 23.4933 126.835 23.6267 127.408 23.76C127.995 23.8933 128.575 24.0467 129.148 24.22C129.735 24.3933 130.268 24.6267 130.748 24.92C131.228 25.2133 131.615 25.6 131.908 26.08C132.215 26.56 132.368 27.1667 132.368 27.9C132.368 28.6867 132.148 29.4067 131.708 30.06C131.268 30.7133 130.608 31.24 129.728 31.64C128.861 32.04 127.761 32.24 126.428 32.24ZM139.182 32.24C138.062 32.24 136.989 32.0933 135.962 31.8C134.935 31.4933 134.109 31.1 133.482 30.62L134.582 28.18C135.182 28.6067 135.889 28.96 136.702 29.24C137.529 29.5067 138.362 29.64 139.202 29.64C139.842 29.64 140.355 29.58 140.742 29.46C141.142 29.3267 141.435 29.1467 141.622 28.92C141.809 28.6933 141.902 28.4333 141.902 28.14C141.902 27.7667 141.755 27.4733 141.462 27.26C141.169 27.0333 140.782 26.8533 140.302 26.72C139.822 26.5733 139.289 26.44 138.702 26.32C138.129 26.1867 137.549 26.0267 136.962 25.84C136.389 25.6533 135.862 25.4133 135.382 25.12C134.902 24.8267 134.509 24.44 134.202 23.96C133.909 23.48 133.762 22.8667 133.762 22.12C133.762 21.32 133.975 20.5933 134.402 19.94C134.842 19.2733 135.495 18.7467 136.362 18.36C137.242 17.96 138.342 17.76 139.662 17.76C140.542 17.76 141.409 17.8667 142.262 18.08C143.115 18.28 143.869 18.5867 144.522 19L143.522 21.46C142.869 21.0867 142.215 20.8133 141.562 20.64C140.909 20.4533 140.269 20.36 139.642 20.36C139.015 20.36 138.502 20.4333 138.102 20.58C137.702 20.7267 137.415 20.92 137.242 21.16C137.069 21.3867 136.982 21.6533 136.982 21.96C136.982 22.32 137.129 22.6133 137.422 22.84C137.715 23.0533 138.102 23.2267 138.582 23.36C139.062 23.4933 139.589 23.6267 140.162 23.76C140.749 23.8933 141.329 24.0467 141.902 24.22C142.489 24.3933 143.022 24.6267 143.502 24.92C143.982 25.2133 144.369 25.6 144.662 26.08C144.969 26.56 145.122 27.1667 145.122 27.9C145.122 28.6867 144.902 29.4067 144.462 30.06C144.022 30.7133 143.362 31.24 142.482 31.64C141.615 32.04 140.515 32.24 139.182 32.24Z" fill="#5F049A"/>
<path d="M92.56 51V39.64H88.08V37H100.28V39.64H95.8V51H92.56ZM106.05 51.16C104.823 51.16 103.743 50.92 102.81 50.44C101.89 49.96 101.176 49.3067 100.67 48.48C100.163 47.64 99.9095 46.6867 99.9095 45.62C99.9095 44.54 100.156 43.5867 100.65 42.76C101.156 41.92 101.843 41.2667 102.71 40.8C103.576 40.32 104.556 40.08 105.65 40.08C106.703 40.08 107.65 40.3067 108.49 40.76C109.343 41.2 110.016 41.84 110.51 42.68C111.003 43.5067 111.25 44.5 111.25 45.66C111.25 45.78 111.243 45.92 111.23 46.08C111.216 46.2267 111.203 46.3667 111.19 46.5H102.45V44.68H109.55L108.35 45.22C108.35 44.66 108.236 44.1733 108.01 43.76C107.783 43.3467 107.47 43.0267 107.07 42.8C106.67 42.56 106.203 42.44 105.67 42.44C105.136 42.44 104.663 42.56 104.25 42.8C103.85 43.0267 103.536 43.3533 103.31 43.78C103.083 44.1933 102.97 44.6867 102.97 45.26V45.74C102.97 46.3267 103.096 46.8467 103.35 47.3C103.616 47.74 103.983 48.08 104.45 48.32C104.93 48.5467 105.49 48.66 106.13 48.66C106.703 48.66 107.203 48.5733 107.63 48.4C108.07 48.2267 108.47 47.9667 108.83 47.62L110.49 49.42C109.996 49.98 109.376 50.4133 108.63 50.72C107.883 51.0133 107.023 51.16 106.05 51.16ZM118.527 51.16C117.367 51.16 116.333 50.9267 115.427 50.46C114.52 49.98 113.807 49.32 113.287 48.48C112.78 47.64 112.527 46.6867 112.527 45.62C112.527 44.54 112.78 43.5867 113.287 42.76C113.807 41.92 114.52 41.2667 115.427 40.8C116.333 40.32 117.367 40.08 118.527 40.08C119.66 40.08 120.647 40.32 121.487 40.8C122.327 41.2667 122.947 41.94 123.347 42.82L120.927 44.12C120.647 43.6133 120.293 43.24 119.867 43C119.453 42.76 119 42.64 118.507 42.64C117.973 42.64 117.493 42.76 117.067 43C116.64 43.24 116.3 43.58 116.047 44.02C115.807 44.46 115.687 44.9933 115.687 45.62C115.687 46.2467 115.807 46.78 116.047 47.22C116.3 47.66 116.64 48 117.067 48.24C117.493 48.48 117.973 48.6 118.507 48.6C119 48.6 119.453 48.4867 119.867 48.26C120.293 48.02 120.647 47.64 120.927 47.12L123.347 48.44C122.947 49.3067 122.327 49.98 121.487 50.46C120.647 50.9267 119.66 51.16 118.527 51.16ZM131.683 40.08C132.536 40.08 133.296 40.2533 133.963 40.6C134.643 40.9333 135.176 41.4533 135.563 42.16C135.95 42.8533 136.143 43.7467 136.143 44.84V51H133.023V45.32C133.023 44.4533 132.83 43.8133 132.443 43.4C132.07 42.9867 131.536 42.78 130.843 42.78C130.35 42.78 129.903 42.8867 129.503 43.1C129.116 43.3 128.81 43.6133 128.583 44.04C128.37 44.4667 128.263 45.0133 128.263 45.68V51H125.143V40.24H128.123V43.22L127.563 42.32C127.95 41.6 128.503 41.0467 129.223 40.66C129.943 40.2733 130.763 40.08 131.683 40.08ZM144.169 51.16C143.023 51.16 142.003 50.92 141.109 50.44C140.229 49.96 139.529 49.3067 139.009 48.48C138.503 47.64 138.249 46.6867 138.249 45.62C138.249 44.54 138.503 43.5867 139.009 42.76C139.529 41.92 140.229 41.2667 141.109 40.8C142.003 40.32 143.023 40.08 144.169 40.08C145.303 40.08 146.316 40.32 147.209 40.8C148.103 41.2667 148.803 41.9133 149.309 42.74C149.816 43.5667 150.069 44.5267 150.069 45.62C150.069 46.6867 149.816 47.64 149.309 48.48C148.803 49.3067 148.103 49.96 147.209 50.44C146.316 50.92 145.303 51.16 144.169 51.16ZM144.169 48.6C144.689 48.6 145.156 48.48 145.569 48.24C145.983 48 146.309 47.66 146.549 47.22C146.789 46.7667 146.909 46.2333 146.909 45.62C146.909 44.9933 146.789 44.46 146.549 44.02C146.309 43.58 145.983 43.24 145.569 43C145.156 42.76 144.689 42.64 144.169 42.64C143.649 42.64 143.183 42.76 142.769 43C142.356 43.24 142.023 43.58 141.769 44.02C141.529 44.46 141.409 44.9933 141.409 45.62C141.409 46.2333 141.529 46.7667 141.769 47.22C142.023 47.66 142.356 48 142.769 48.24C143.183 48.48 143.649 48.6 144.169 48.6ZM152.155 51V36.16H155.275V51H152.155ZM163.29 51.16C162.144 51.16 161.124 50.92 160.23 50.44C159.35 49.96 158.65 49.3067 158.13 48.48C157.624 47.64 157.37 46.6867 157.37 45.62C157.37 44.54 157.624 43.5867 158.13 42.76C158.65 41.92 159.35 41.2667 160.23 40.8C161.124 40.32 162.144 40.08 163.29 40.08C164.424 40.08 165.437 40.32 166.33 40.8C167.224 41.2667 167.924 41.9133 168.43 42.74C168.937 43.5667 169.19 44.5267 169.19 45.62C169.19 46.6867 168.937 47.64 168.43 48.48C167.924 49.3067 167.224 49.96 166.33 50.44C165.437 50.92 164.424 51.16 163.29 51.16ZM163.29 48.6C163.81 48.6 164.277 48.48 164.69 48.24C165.104 48 165.43 47.66 165.67 47.22C165.91 46.7667 166.03 46.2333 166.03 45.62C166.03 44.9933 165.91 44.46 165.67 44.02C165.43 43.58 165.104 43.24 164.69 43C164.277 42.76 163.81 42.64 163.29 42.64C162.77 42.64 162.304 42.76 161.89 43C161.477 43.24 161.144 43.58 160.89 44.02C160.65 44.46 160.53 44.9933 160.53 45.62C160.53 46.2333 160.65 46.7667 160.89 47.22C161.144 47.66 161.477 48 161.89 48.24C162.304 48.48 162.77 48.6 163.29 48.6ZM176.336 55.04C175.323 55.04 174.343 54.9133 173.396 54.66C172.463 54.42 171.683 54.0533 171.056 53.56L172.296 51.32C172.749 51.6933 173.323 51.9867 174.016 52.2C174.723 52.4267 175.416 52.54 176.096 52.54C177.203 52.54 178.003 52.2933 178.496 51.8C179.003 51.3067 179.256 50.5733 179.256 49.6V47.98L179.456 45.28L179.416 42.56V40.24H182.376V49.2C182.376 51.2 181.856 52.6733 180.816 53.62C179.776 54.5667 178.283 55.04 176.336 55.04ZM175.856 50.48C174.856 50.48 173.949 50.2667 173.136 49.84C172.336 49.4 171.689 48.7933 171.196 48.02C170.716 47.2333 170.476 46.32 170.476 45.28C170.476 44.2267 170.716 43.3133 171.196 42.54C171.689 41.7533 172.336 41.1467 173.136 40.72C173.949 40.2933 174.856 40.08 175.856 40.08C176.763 40.08 177.563 40.2667 178.256 40.64C178.949 41 179.489 41.5667 179.876 42.34C180.263 43.1 180.456 44.08 180.456 45.28C180.456 46.4667 180.263 47.4467 179.876 48.22C179.489 48.98 178.949 49.5467 178.256 49.92C177.563 50.2933 176.763 50.48 175.856 50.48ZM176.476 47.92C177.023 47.92 177.509 47.8133 177.936 47.6C178.363 47.3733 178.696 47.06 178.936 46.66C179.176 46.26 179.296 45.8 179.296 45.28C179.296 44.7467 179.176 44.2867 178.936 43.9C178.696 43.5 178.363 43.1933 177.936 42.98C177.509 42.7533 177.023 42.64 176.476 42.64C175.929 42.64 175.443 42.7533 175.016 42.98C174.589 43.1933 174.249 43.5 173.996 43.9C173.756 44.2867 173.636 44.7467 173.636 45.28C173.636 45.8 173.756 46.26 173.996 46.66C174.249 47.06 174.589 47.3733 175.016 47.6C175.443 47.8133 175.929 47.92 176.476 47.92ZM186.64 55.04C186.08 55.04 185.527 54.9533 184.98 54.78C184.433 54.6067 183.987 54.3667 183.64 54.06L184.78 51.84C185.02 52.0533 185.293 52.22 185.6 52.34C185.92 52.46 186.233 52.52 186.54 52.52C186.98 52.52 187.327 52.4133 187.58 52.2C187.847 52 188.087 51.66 188.3 51.18L188.86 49.86L189.1 49.52L192.96 40.24H195.96L191.1 51.66C190.753 52.5267 190.353 53.2067 189.9 53.7C189.46 54.1933 188.967 54.54 188.42 54.74C187.887 54.94 187.293 55.04 186.64 55.04ZM188.48 51.42L183.68 40.24H186.9L190.62 49.24L188.48 51.42Z" fill="#5F049A"/>
</svg>
